<svg width="27" height="27" viewBox="0 0 27 27" fill="none" xmlns="http://www.w3.org/2000/svg">
<path d="M26.6701 25.0802L18.992 17.4021C20.4793 15.565 21.3748 13.2307 21.3748 10.6882C21.3748 4.79551 16.5801 0.000793457 10.6874 0.000793457C4.79467 0.000793457 0 4.79546 0 10.6882C0 16.5808 4.79472 21.3756 10.6874 21.3756C13.2299 21.3756 15.5642 20.4801 17.4013 18.9928L25.0794 26.6709C25.2988 26.8903 25.5867 27.0005 25.8748 27.0005C26.1628 27.0005 26.4508 26.8903 26.6702 26.6709C27.11 26.231 27.11 25.52 26.6701 25.0802ZM10.6874 19.1256C6.03444 19.1256 2.25 15.3411 2.25 10.6882C2.25 6.03518 6.03444 2.25074 10.6874 2.25074C15.3404 2.25074 19.1248 6.03518 19.1248 10.6882C19.1248 15.3411 15.3403 19.1256 10.6874 19.1256Z" fill="#F59836"/>
</svg>
