<svg width="32" height="32" viewBox="0 0 32 32" fill="none" xmlns="http://www.w3.org/2000/svg">
<path d="M7.29417 25.7348C7.29417 25.406 7.174 25.1214 6.93368 24.8811C6.69335 24.6407 6.40875 24.5206 6.07988 24.5206C5.75101 24.5206 5.46641 24.6407 5.22609 24.8811C4.98576 25.1214 4.8656 25.406 4.8656 25.7348C4.8656 26.0637 4.98576 26.3483 5.22609 26.5886C5.46641 26.829 5.75101 26.9491 6.07988 26.9491C6.40875 26.9491 6.69335 26.829 6.93368 26.5886C7.174 26.3483 7.29417 26.0637 7.29417 25.7348ZM19.5129 17.7661L6.57319 30.7058C6.10518 31.1738 5.53598 31.4078 4.8656 31.4078C4.20786 31.4078 3.63234 31.1738 3.13903 30.7058L1.12787 28.6567C0.647218 28.2014 0.406891 27.6322 0.406891 26.9491C0.406891 26.2787 0.647218 25.7032 1.12787 25.2226L14.0486 12.3018C14.5419 13.5414 15.2661 14.6387 16.2211 15.5937C17.1761 16.5486 18.2733 17.2728 19.5129 17.7661ZM31.5419 9.51275C31.5419 10.0061 31.3965 10.6764 31.1056 11.5239C30.5111 13.2189 29.4707 14.5944 27.9845 15.6506C26.4982 16.7068 24.8634 17.2348 23.0799 17.2348C20.7399 17.2348 18.7382 16.4032 17.0749 14.7399C15.4115 13.0766 14.5799 11.0749 14.5799 8.73485C14.5799 6.39482 15.4115 4.39314 17.0749 2.72983C18.7382 1.06651 20.7399 0.234848 23.0799 0.234848C23.8135 0.234848 24.5819 0.339201 25.3851 0.547907C26.1883 0.756611 26.8682 1.0507 27.4247 1.43016C27.6271 1.5693 27.7283 1.74638 27.7283 1.96141C27.7283 2.17644 27.6271 2.35352 27.4247 2.49266L21.8656 5.69913V9.94913L25.5274 11.9793C25.5907 11.9413 26.0903 11.6346 27.0263 11.0591C27.9623 10.4835 28.8193 9.97127 29.5972 9.52224C30.3751 9.0732 30.821 8.84869 30.9348 8.84869C31.1245 8.84869 31.2731 8.91193 31.3807 9.03842C31.4882 9.16491 31.5419 9.32302 31.5419 9.51275Z" fill="black"/>
</svg>
