<?xml version="1.0" standalone="no"?>
<!DOCTYPE svg PUBLIC "-//W3C//DTD SVG 20010904//EN"
 "http://www.w3.org/TR/2001/REC-SVG-20010904/DTD/svg10.dtd">
<svg version="1.0" xmlns="http://www.w3.org/2000/svg"
 width="155.000000pt" height="155.000000pt" viewBox="0 0 155.000000 155.000000"
 preserveAspectRatio="xMidYMid meet">
<metadata>
Created by potrace 1.11, written by Peter Selinger 2001-2013
</metadata>
<g transform="translate(0.000000,155.000000) scale(0.100000,-0.100000)"
fill="#000000" stroke="none">
<path d="M710 1530 c0 -5 -3 -9 -7 -9 -25 4 -43 -2 -37 -13 5 -7 3 -8 -5 -3
-20 12 -62 -42 -66 -87 -1 -10 2 -18 7 -18 5 0 6 -5 3 -10 -4 -7 10 -9 39 -7
28 2 46 -1 46 -7 0 -7 3 -8 8 -1 4 6 16 10 27 10 11 0 23 -4 27 -10 5 -7 8 -6
8 0 0 9 42 12 60 5 3 -1 9 -2 13 -1 42 7 86 7 81 0 -8 -14 6 -11 19 4 15 16
20 37 8 37 -4 0 -8 8 -8 18 0 35 -3 42 -18 42 -8 0 -14 5 -13 11 2 6 -16 20
-40 30 -24 10 -40 13 -36 7 5 -7 3 -8 -6 -3 -20 12 -74 12 -82 1 -5 -7 -8 -7
-8 2 0 6 -4 12 -10 12 -5 0 -10 -4 -10 -10z"/>
<path d="M702 1338 c-7 -7 -12 -8 -12 -4 0 5 -8 2 -17 -5 -9 -8 -14 -9 -10 -2
7 11 -6 8 -85 -20 -15 -5 -30 -8 -33 -7 -4 1 -15 -8 -24 -19 -10 -12 -22 -21
-27 -21 -5 0 -16 -10 -24 -21 -8 -12 -21 -28 -28 -35 -7 -8 -11 -14 -7 -14 4
0 -1 -7 -9 -16 -9 -8 -17 -22 -17 -30 -2 -23 -4 -28 -12 -41 -5 -7 -5 -17 -2
-23 3 -5 1 -10 -4 -10 -6 0 -11 -5 -11 -11 0 -5 6 -7 13 -3 6 4 1 -4 -13 -18
-14 -13 -28 -23 -31 -22 -3 2 -17 -8 -32 -21 -19 -18 -24 -32 -21 -51 3 -17 1
-23 -7 -19 -8 5 -8 2 -1 -12 7 -12 7 -24 0 -37 -7 -12 -7 -17 0 -13 6 4 9 -8
8 -31 -2 -20 1 -45 6 -54 5 -10 4 -19 -2 -23 -7 -4 -6 -13 1 -26 5 -11 8 -25
6 -32 -2 -7 0 -20 5 -31 7 -13 7 -16 -1 -12 -15 10 -14 -7 1 -23 11 -11 10
-12 0 -6 -11 6 -12 3 -3 -12 6 -11 8 -23 5 -26 -3 -3 -7 -13 -9 -24 -1 -10 -7
-17 -13 -16 -6 2 -14 -6 -17 -17 -4 -11 -11 -17 -17 -14 -7 5 -9 0 -6 -14 4
-12 3 -20 -2 -17 -4 3 -16 -12 -26 -33 -15 -31 -18 -71 -22 -244 l-4 -208 572
0 572 0 -3 193 c-2 118 -7 195 -14 199 -6 5 -6 8 2 8 9 0 6 11 -7 35 -11 19
-21 38 -22 43 -2 4 -7 6 -11 4 -5 -1 -6 2 -3 7 7 11 -33 63 -43 57 -4 -3 -8 1
-8 9 0 8 5 12 11 9 6 -3 4 0 -4 8 -17 15 -18 27 -5 78 5 19 8 38 7 43 -1 4 2
7 6 7 13 0 7 273 -6 278 -7 2 -10 7 -7 12 5 8 -63 36 -77 32 -5 -1 -8 6 -9 15
0 10 -2 27 -5 38 -2 11 -6 35 -10 53 -3 17 -10 32 -15 32 -5 0 -9 6 -9 14 0 7
-22 37 -49 65 -26 28 -45 54 -42 58 3 4 -2 1 -11 -6 -10 -8 -18 -9 -18 -3 0
10 -57 36 -72 33 -5 0 -8 4 -8 10 0 8 -4 8 -14 0 -10 -8 -16 -9 -21 -1 -3 5
-17 10 -31 10 -18 0 -23 -4 -18 -12 5 -9 2 -9 -9 1 -9 7 -17 11 -17 8 0 -3
-14 -2 -31 3 -23 7 -31 6 -36 -5 -3 -8 -9 -12 -14 -9 -5 3 -7 10 -4 15 8 13 1
11 -13 -3z"/>
</g>
</svg>
